<svg width="38" height="38" viewBox="0 0 38 38" fill="none" xmlns="http://www.w3.org/2000/svg">
<g filter="url(#filter0_d_22_133)">
<path d="M21.8711 15C21.8711 16.5857 20.5857 17.8711 19 17.8711C17.4143 17.8711 16.1289 16.5857 16.1289 15C16.1289 13.4143 17.4143 12.1289 19 12.1289C20.5857 12.1289 21.8711 13.4143 21.8711 15Z" fill="#C5AC2D"/>
<path d="M25.7144 9.92039C25.5764 9.5464 25.3562 9.20789 25.0701 8.93002C24.7923 8.64392 24.454 8.42374 24.0797 8.28572C23.7762 8.16785 23.3203 8.02754 22.4805 7.98932C21.5721 7.94789 21.2997 7.93896 18.9999 7.93896C16.6999 7.93896 16.4275 7.94766 15.5193 7.98909C14.6796 8.02754 14.2234 8.16785 13.9201 8.28572C13.5459 8.42374 13.2074 8.64392 12.9298 8.93002C12.6437 9.20789 12.4235 9.54617 12.2852 9.92039C12.1674 10.2239 12.0271 10.6801 11.9888 11.5198C11.9474 12.428 11.9385 12.7004 11.9385 15.0004C11.9385 17.3002 11.9474 17.5726 11.9888 18.481C12.0271 19.3208 12.1674 19.7767 12.2852 20.0802C12.4235 20.4545 12.6434 20.7927 12.9295 21.0706C13.2074 21.3567 13.5457 21.5769 13.9199 21.7149C14.2234 21.833 14.6796 21.9733 15.5193 22.0115C16.4275 22.053 16.6997 22.0617 18.9997 22.0617C21.3 22.0617 21.5723 22.053 22.4803 22.0115C23.3201 21.9733 23.7762 21.833 24.0797 21.7149C24.8309 21.4251 25.4247 20.8314 25.7144 20.0802C25.8323 19.7767 25.9726 19.3208 26.011 18.481C26.0525 17.5726 26.0612 17.3002 26.0612 15.0004C26.0612 12.7004 26.0525 12.428 26.011 11.5198C25.9728 10.6801 25.8325 10.2239 25.7144 9.92039V9.92039ZM18.9999 19.4231C16.5571 19.4231 14.5768 17.4431 14.5768 15.0002C14.5768 12.5573 16.5571 10.5773 18.9999 10.5773C21.4426 10.5773 23.4229 12.5573 23.4229 15.0002C23.4229 17.4431 21.4426 19.4231 18.9999 19.4231ZM23.5977 11.4361C23.0269 11.4361 22.5641 10.9733 22.5641 10.4024C22.5641 9.83159 23.0269 9.36879 23.5977 9.36879C24.1685 9.36879 24.6313 9.83159 24.6313 10.4024C24.6311 10.9733 24.1685 11.4361 23.5977 11.4361Z" fill="#C5AC2D"/>
<path d="M19 0C10.717 0 4 6.717 4 15C4 23.283 10.717 30 19 30C27.283 30 34 23.283 34 15C34 6.717 27.283 0 19 0ZM27.5613 18.5511C27.5197 19.468 27.3739 20.094 27.161 20.6419C26.7135 21.7989 25.7989 22.7135 24.6419 23.161C24.0942 23.3739 23.468 23.5194 22.5513 23.5613C21.6328 23.6032 21.3394 23.6133 19.0002 23.6133C16.6608 23.6133 16.3676 23.6032 15.4489 23.5613C14.5322 23.5194 13.906 23.3739 13.3583 23.161C12.7833 22.9447 12.2629 22.6057 11.8326 22.1674C11.3945 21.7374 11.0555 21.2167 10.8392 20.6419C10.6264 20.0942 10.4806 19.468 10.4389 18.5513C10.3966 17.6326 10.3867 17.3392 10.3867 15C10.3867 12.6608 10.3966 12.3674 10.4387 11.4489C10.4803 10.532 10.6259 9.90601 10.8388 9.35806C11.0551 8.78334 11.3943 8.26263 11.8326 7.83257C12.2626 7.39426 12.7833 7.05528 13.3581 6.83899C13.906 6.62613 14.532 6.48056 15.4489 6.43867C16.3674 6.39679 16.6608 6.38672 19 6.38672C21.3392 6.38672 21.6326 6.39679 22.5511 6.4389C23.468 6.48056 24.094 6.62613 24.6419 6.83876C25.2167 7.05505 25.7374 7.39426 26.1677 7.83257C26.6057 8.26286 26.9449 8.78334 27.161 9.35806C27.3741 9.90601 27.5197 10.532 27.5616 11.4489C27.6034 12.3674 27.6133 12.6608 27.6133 15C27.6133 17.3392 27.6034 17.6326 27.5613 18.5511V18.5511Z" fill="#C5AC2D"/>
</g>
<defs>
<filter id="filter0_d_22_133" x="0" y="0" width="38" height="38" filterUnits="userSpaceOnUse" color-interpolation-filters="sRGB">
<feFlood flood-opacity="0" result="BackgroundImageFix"/>
<feColorMatrix in="SourceAlpha" type="matrix" values="0 0 0 0 0 0 0 0 0 0 0 0 0 0 0 0 0 0 127 0" result="hardAlpha"/>
<feOffset dy="4"/>
<feGaussianBlur stdDeviation="2"/>
<feComposite in2="hardAlpha" operator="out"/>
<feColorMatrix type="matrix" values="0 0 0 0 0 0 0 0 0 0 0 0 0 0 0 0 0 0 0.25 0"/>
<feBlend mode="normal" in2="BackgroundImageFix" result="effect1_dropShadow_22_133"/>
<feBlend mode="normal" in="SourceGraphic" in2="effect1_dropShadow_22_133" result="shape"/>
</filter>
</defs>
</svg>
