<svg width="60" height="50" viewBox="0 0 60 50" fill="none" xmlns="http://www.w3.org/2000/svg">
<path d="M38.4542 44.0616H5.57589C3.47062 44.0616 1.75781 42.2629 1.75781 40.0518V12.4271C1.75781 10.216 3.47062 8.41725 5.57589 8.41725C6.06128 8.41725 6.4548 8.00396 6.4548 7.49418C6.4548 6.98427 6.06128 6.57111 5.57589 6.57111C2.50136 6.57111 0 9.19805 0 12.4271V40.0518C0 43.2808 2.50136 45.9078 5.57589 45.9078H38.4542C38.9396 45.9078 39.3331 45.4946 39.3331 44.9847C39.3331 44.4751 38.9396 44.0616 38.4542 44.0616Z" fill="#C5AC2D"/>
<path d="M54.4242 6.57111H25.303C24.8176 6.57111 24.4241 6.98427 24.4241 7.49418C24.4241 8.00396 24.8176 8.41725 25.303 8.41725H54.4242C56.5294 8.41725 58.2422 10.216 58.2422 12.4271V40.0518C58.2422 42.2629 56.5294 44.0616 54.4242 44.0616H53.4848C52.9994 44.0616 52.6059 44.4749 52.6059 44.9847C52.6059 45.4946 52.9994 45.9078 53.4848 45.9078H54.4242C57.4987 45.9078 60.0001 43.2808 60.0001 40.0518V12.4271C60.0001 9.19805 57.4987 6.57111 54.4242 6.57111Z" fill="#C5AC2D"/>
<path d="M9.3335 8.41724C11.9567 8.41724 14.091 10.6586 14.091 13.4138C14.091 13.9236 14.4845 14.3368 14.9699 14.3368C15.4552 14.3368 15.8488 13.9236 15.8488 13.4138C15.8488 10.6587 17.983 8.41724 20.6062 8.41724C21.0916 8.41724 21.4851 8.00395 21.4851 7.49417C21.4851 6.98426 21.0916 6.57109 20.6062 6.57109C17.983 6.57109 15.8488 4.32963 15.8488 1.57456C15.8488 1.06478 15.4552 0.651489 14.9699 0.651489C14.4845 0.651489 14.091 1.06478 14.091 1.57456C14.091 4.32963 11.9569 6.57109 9.3335 6.57109C8.84811 6.57109 8.45459 6.98426 8.45459 7.49417C8.45459 8.00395 8.84811 8.41724 9.3335 8.41724ZM14.9699 5.00409C15.5404 6.03448 16.3597 6.89491 17.3408 7.49417C16.3597 8.0933 15.5404 8.95385 14.9699 9.98412C14.3993 8.95385 13.58 8.0933 12.599 7.49417C13.5799 6.89491 14.3993 6.03448 14.9699 5.00409Z" fill="#C5AC2D"/>
<path d="M49.7273 44.0616C48.14 44.0616 46.8487 42.7053 46.8487 41.0384C46.8487 40.5286 46.4552 40.1153 45.9698 40.1153C45.4844 40.1153 45.0909 40.5286 45.0909 41.0384C45.0909 42.7054 43.7995 44.0616 42.2122 44.0616C41.7268 44.0616 41.3333 44.4749 41.3333 44.9847C41.3333 45.4946 41.7268 45.9078 42.2122 45.9078C43.7995 45.9078 45.0909 47.2641 45.0909 48.9311C45.0909 49.4409 45.4844 49.8542 45.9698 49.8542C46.4552 49.8542 46.8487 49.4409 46.8487 48.9311C46.8487 47.2641 48.1401 45.9078 49.7273 45.9078C50.2127 45.9078 50.6062 45.4946 50.6062 44.9847C50.6062 44.475 50.2127 44.0616 49.7273 44.0616ZM45.9697 46.0814C45.6793 45.6603 45.3264 45.2897 44.9254 44.9847C45.3263 44.6797 45.6793 44.3091 45.9697 43.8881C46.26 44.3091 46.6129 44.6798 47.0139 44.9847C46.6129 45.2897 46.26 45.6604 45.9697 46.0814Z" fill="#C5AC2D"/>
<path d="M13.2761 17.4236C12.7907 17.4236 12.3972 17.8369 12.3972 18.3467V34.1189C12.3972 34.5685 12.7057 34.9526 13.1275 35.0287C13.1886 35.0396 13.2769 35.0556 14.9073 35.0556C15.6985 35.0556 16.8534 35.0518 18.5443 35.042C19.0297 35.0391 19.421 34.6235 19.4183 34.1137C19.4156 33.6057 19.0226 33.1958 18.5395 33.1958C18.5378 33.1958 18.5361 33.1958 18.5344 33.1958C17.2017 33.2036 15.25 33.2115 14.1551 33.2086V18.3467C14.155 17.8369 13.7615 17.4236 13.2761 17.4236Z" fill="#C5AC2D"/>
<path d="M37.2863 34.8868C37.4402 35.0006 37.6168 35.0554 37.7918 35.0554C38.068 35.0554 38.3399 34.919 38.5111 34.6639L43.4622 27.2824L48.4061 34.6633C48.5772 34.9188 48.8493 35.0554 49.1258 35.0554C49.3005 35.0554 49.477 35.0007 49.6307 34.8871C50.0278 34.5939 50.1232 34.018 49.8439 33.6011L44.5377 25.6792L49.0995 18.8782C49.379 18.4615 49.284 17.8856 48.8872 17.592C48.4904 17.2983 47.9421 17.3982 47.6625 17.815L43.4633 24.0751L39.2704 17.8155C38.9911 17.3984 38.4429 17.2983 38.0458 17.5916C37.6488 17.8849 37.5534 18.4608 37.8327 18.8776L42.3879 25.6783L37.074 33.6005C36.7945 34.0174 36.8896 34.5932 37.2863 34.8868Z" fill="#C5AC2D"/>
<path d="M24.7423 34.0779C25.7062 34.7248 26.7971 35.0535 27.9847 35.0553H27.9946C29.0264 35.0553 29.9918 34.8213 30.8641 34.36C33.0336 33.2124 34.1803 31.4273 34.1803 29.1974V18.3467C34.1803 17.8369 33.7868 17.4236 33.3014 17.4236C32.816 17.4236 32.4225 17.8369 32.4225 18.3467V29.1974C32.4225 30.7257 31.6541 31.8751 30.0735 32.7111C29.4485 33.0417 28.7491 33.2092 27.9943 33.2091C27.9919 33.2091 27.9894 33.2091 27.9869 33.2091C27.1393 33.2079 26.366 32.9767 25.6886 32.5221C24.3202 31.604 23.7363 30.6129 23.7363 29.2088V18.3467C23.7363 17.8369 23.3428 17.4236 22.8574 17.4236C22.372 17.4236 21.9785 17.8369 21.9785 18.3467V29.2088C21.9786 31.2374 22.8826 32.83 24.7423 34.0779Z" fill="#C5AC2D"/>
</svg>
